<?xml version="1.0" standalone="no"?><!DOCTYPE svg PUBLIC "-//W3C//DTD SVG 1.1//EN" "http://www.w3.org/Graphics/SVG/1.1/DTD/svg11.dtd"><svg t="1781305003295" class="icon" viewBox="0 0 1024 1024" version="1.1" xmlns="http://www.w3.org/2000/svg" p-id="10081" xmlns:xlink="http://www.w3.org/1999/xlink" width="200" height="200"><path d="M448.000264 383.998418a31.999868 31.999868 0 1 0 31.999868 31.999868 31.999868 31.999868 0 0 0-31.999868-31.999868zM932.998265 167.35931l-383.998417-159.99934A114.799527 114.799527 0 0 0 512.1 0a114.799527 114.799527 0 0 0-36.919848 7.33997l-383.998418 159.99934A95.859605 95.859605 0 0 0 32.001978 255.998945c0 396.998364 228.999056 671.437233 442.998174 760.636865a96.179604 96.179604 0 0 0 73.819696 0C720.179142 945.216105 991.998022 698.597121 991.998022 255.998945a95.999604 95.999604 0 0 0-58.999757-88.639635zM767.998945 511.99789h-24.2399c-57.019765 0-85.579647 68.939716-45.259814 109.25955l17.15993 17.139929a31.999868 31.999868 0 1 1-45.259814 45.259814l-17.139929-17.15993c-40.319834-40.319834-109.25955-11.759952-109.25955 45.259814V735.996967a31.999868 31.999868 0 0 1-63.999736 0v-24.2399c0-57.019765-68.939716-85.579647-109.25955-45.259814l-17.139929 17.15993a31.999868 31.999868 0 0 1-45.259814-45.259814l17.15993-17.139929c40.319834-40.319834 11.759952-109.25955-45.259814-109.25955H256.001055a31.999868 31.999868 0 0 1 0-63.999736h24.2399c57.019765 0 85.579647-68.939716 45.259814-109.25955l-17.15993-17.139929a31.999868 31.999868 0 0 1 45.259814-45.259814l17.139929 17.159929c40.319834 40.319834 109.25955 11.759952 109.25955-45.259813V223.999077a31.999868 31.999868 0 0 1 63.999736 0v24.2399c0 57.019765 68.939716 85.579647 109.25955 45.259813l17.139929-17.159929a31.999868 31.999868 0 0 1 45.259814 45.259814l-17.15993 17.139929c-40.319834 40.319834-11.759952 109.25955 45.259814 109.25955H767.998945a31.999868 31.999868 0 0 1 0 63.999736z m-191.999209 0a31.999868 31.999868 0 1 0 31.999868 31.999868 31.999868 31.999868 0 0 0-31.999868-31.999868z" p-id="10082" fill="#b11964"></path></svg>